<?xml version="1.0" encoding="UTF-8"?>
<svg id="Layer_1" data-name="Layer 1" xmlns="http://www.w3.org/2000/svg" xmlns:xlink="http://www.w3.org/1999/xlink" viewBox="0 0 552.37 552.37">
  <defs>
    <style>
      .cls-1 {
        fill: #fff;
      }

      .cls-2 {
        fill: none;
      }

      .cls-3 {
        clip-path: url(#clippath);
      }
    </style>
    <clipPath id="clippath">
      <circle class="cls-2" cx="276.19" cy="276.19" r="276.19"/>
    </clipPath>
  </defs>
  <g class="cls-3">
    <g>
      <path class="cls-1" d="M372.02,211.28c21.65-26.58,57.84-51.26,77.91-77.74,7.16-9.45,2.48-20.24,11.53-27.91l17.25-17.25c-5.77-11.23-11.88-22.29-18.12-33.28l-24.79,24.8c-6.35,8.43-16.08,5.53-23.92,11.58-28.76,22.22-55.86,60.63-84.15,84.9-1.01,4.38,33.13,45.49,44.29,34.89Z"/>
      <rect class="cls-1" x="107.59" y="299.9" width="253.79" height="14.09" transform="translate(617.34 358.18) rotate(135)"/>
      <rect class="cls-1" x="152.18" y="342.57" width="259.8" height="13.69" transform="translate(721.8 258.25) rotate(117.2)"/>
      <rect class="cls-1" x="185.34" y="129.79" width="13.72" height="259.61" transform="translate(334.99 -30.13) rotate(62.75)"/>
    </g>
  </g>
</svg>